<svg xmlns="http://www.w3.org/2000/svg" version="1.1" viewBox="-5.0 -10.0 110.0 135.0">
 <g>
  <path d="m83.797 54.039c0-0.80469-0.058594-1.6094-0.17969-2.4023-0.03125-0.19922-0.066407-0.39844-0.10547-0.59375-0.039063-0.19531-0.082031-0.39062-0.12891-0.58594-0.09375-0.38672-0.20703-0.76953-0.33594-1.1484-0.13281-0.37891-0.28125-0.75-0.44922-1.1133-0.16797-0.36328-0.35547-0.71875-0.55859-1.0625-0.10156-0.17187-0.21094-0.33984-0.32422-0.50781-0.11328-0.16797-0.23047-0.33203-0.35156-0.49219-0.24609-0.32422-0.50781-0.63281-0.78906-0.92578s-0.57812-0.57031-0.89062-0.83203c-0.3125-0.25781-0.63672-0.5-0.97266-0.72266-0.33594-0.22266-0.6875-0.42578-1.043-0.60938-0.089844-0.046875-0.17969-0.089844-0.27344-0.13281-0.078125-0.039062-0.15625-0.074218-0.23438-0.10938-0.089844-0.042969-0.18359-0.082031-0.27344-0.12109-0.18359-0.078126-0.37109-0.15234-0.55859-0.21875-0.09375-0.035157-0.1875-0.066407-0.28125-0.097657-0.066406-0.023437-0.13281-0.042969-0.20312-0.066406-0.1875-0.058594-0.375-0.11328-0.5625-0.16016-0.035156-0.007813-0.070312-0.019531-0.10547-0.027344v-11.582c0-13.629-11.043-24.672-24.672-24.672s-24.672 11.043-24.672 24.672v11.586c-0.035156 0.007813-0.070312 0.019531-0.10547 0.027344-0.1875 0.050781-0.375 0.10547-0.5625 0.16406-0.066406 0.019531-0.13672 0.042968-0.20312 0.066406-0.09375 0.03125-0.1875 0.066406-0.28125 0.10156-0.1875 0.070313-0.375 0.14453-0.55859 0.22266-0.09375 0.039063-0.18359 0.078126-0.27344 0.12109-0.17188 0.078125-0.33984 0.16016-0.50781 0.24609-0.35938 0.18359-0.70703 0.38672-1.0469 0.60547-0.33594 0.22266-0.66406 0.46094-0.97266 0.71875-0.3125 0.25781-0.60547 0.53516-0.88672 0.83203-0.28125 0.29297-0.54297 0.60156-0.78906 0.92578-0.12109 0.16016-0.23828 0.32422-0.35156 0.49219s-0.21875 0.33594-0.32422 0.50781c-0.20703 0.34375-0.39453 0.69922-0.5625 1.0625s-0.32031 0.73438-0.44922 1.1133c-0.26172 0.75781-0.44922 1.5352-0.57031 2.3281-0.12109 0.79297-0.17969 1.5977-0.17969 2.4023-0.015625 5.7734-0.046875 11.547-0.03125 17.316 0.003907 1.5742 0.011719 3.1523 0.023438 4.7266 0.011719 1.7344 0.027343 3.4688 0.046875 5.2031 0.003906 0.46875 0.011718 0.9375 0.050781 1.4062 0.039063 0.44922 0.10938 0.89453 0.20703 1.3359 0.097656 0.44141 0.21875 0.875 0.36328 1.3008 0.13281 0.39062 0.28125 0.77344 0.44922 1.1484 0.16406 0.375 0.34766 0.73828 0.53906 1.0977 0.1875 0.35156 0.39062 0.69531 0.60938 1.0273 0.21875 0.33594 0.44922 0.66016 0.69922 0.96875 0.51172 0.64062 1.0859 1.2305 1.7227 1.7461 0.60938 0.49609 1.2734 0.92969 1.9727 1.2891 0.46875 0.24219 0.95703 0.45312 1.4531 0.63281s1.0078 0.32812 1.5195 0.44922c0.64453 0.14844 1.2969 0.25391 1.957 0.32031 0.66016 0.066407 1.3203 0.09375 1.9844 0.09375 4.6055-0.003906 9.2148 0.050781 13.82 0.042969 3.9375-0.003906 7.8789-0.003906 11.816 0 4.6055 0.007812 9.2148-0.046875 13.82-0.042969 0.83203 0 1.6641-0.042969 2.4883-0.15234 0.41406-0.054688 0.82422-0.125 1.2305-0.21094 0.33984-0.074219 0.67578-0.16016 1.0078-0.25781 0.63281-0.1875 1.2539-0.42188 1.8516-0.70703 0.25391-0.12109 0.50391-0.25391 0.75-0.39062 0.21094-0.12109 0.42188-0.25 0.625-0.38281 0.20312-0.13281 0.40625-0.27344 0.60156-0.42188 0.097656-0.074219 0.19531-0.14844 0.29297-0.22656s0.19922-0.16016 0.29297-0.24609c0.38672-0.33594 0.75391-0.69922 1.0898-1.0859 0.085937-0.09375 0.16797-0.19141 0.24609-0.29297 0.082031-0.097656 0.16016-0.19922 0.23828-0.30078 0.15234-0.19922 0.30078-0.39844 0.44141-0.60547 0.28125-0.41406 0.53906-0.84375 0.77344-1.2852 0.24219-0.45312 0.46484-0.91797 0.66016-1.3945 0.097657-0.23828 0.1875-0.48047 0.27344-0.72266 0.042969-0.12891 0.085938-0.25781 0.12891-0.38672 0.042969-0.13281 0.082032-0.26953 0.12109-0.40625 0.15234-0.54688 0.26562-1.1016 0.32812-1.6641 0.015625-0.13281 0.027344-0.26953 0.039063-0.40625l0.011718-0.19922c0.007813-0.13281 0.011719-0.26563 0.015625-0.39844 0.003907-0.13281 0.003907-0.26562 0.007813-0.40234 0.003906-0.4375 0.011718-0.875 0.015625-1.3164 0.015625-1.6562 0.03125-3.3125 0.042969-4.9688 0.007812-1.0664 0.011718-2.1367 0.015624-3.2031 0.007813-2.0078 0.007813-4.0156 0.003907-6.0234 0-4.0078-0.015625-8.0117-0.027344-12.016zm-53.625-23.516c0-11.227 9.1016-20.328 20.328-20.328s20.328 9.1016 20.328 20.328v11.582h-4.9102v-11.582c0-8.5156-6.9023-15.418-15.422-15.418-8.5195 0-15.422 6.9023-15.422 15.418v11.582h-4.9102c0.007813-3.8594 0.007813-7.7227 0.007813-11.582zm31.488 0v11.582h-22.32v-11.582c0-0.75391 0.074218-1.5078 0.22656-2.2461 0.14844-0.71875 0.36719-1.4219 0.65234-2.0938 0.28125-0.66406 0.625-1.3008 1.0312-1.8945 0.39844-0.59375 0.85938-1.1445 1.3633-1.6523 0.50391-0.50391 1.0586-0.96094 1.6523-1.3633 0.59766-0.40234 1.2344-0.75 1.8945-1.0312 0.67578-0.28516 1.3789-0.50391 2.0938-0.65234 0.73828-0.15234 1.4922-0.22656 2.2461-0.22656s1.5078 0.074219 2.2461 0.22656c0.71875 0.14844 1.4219 0.36719 2.0938 0.65234 0.66406 0.28125 1.3008 0.625 1.8945 1.0312 0.59375 0.39844 1.1445 0.85547 1.6523 1.3633 0.50391 0.50391 0.96094 1.0586 1.3633 1.6523 0.40234 0.59766 0.75 1.2344 1.0312 1.8945 0.28516 0.67578 0.50391 1.3789 0.65234 2.0938 0.15234 0.73828 0.22656 1.4922 0.22656 2.2461zm17.824 51.355c-0.007813 0.51172-0.085937 1.0195-0.21484 1.5117-0.13281 0.50391-0.3125 0.99609-0.52734 1.4688-0.21094 0.46875-0.45313 0.91797-0.73047 1.3516-0.26172 0.41016-0.55469 0.80078-0.88281 1.1562-0.30859 0.33203-0.65625 0.63281-1.0234 0.89844-0.17969 0.12891-0.36719 0.25391-0.55859 0.36719-0.19141 0.11328-0.38672 0.21484-0.58594 0.30859-0.23828 0.11328-0.48438 0.21484-0.73438 0.30469-0.41797 0.14844-0.84766 0.26562-1.2812 0.35547-0.44141 0.089844-0.89062 0.15234-1.3398 0.19141-0.45703 0.039062-0.91406 0.054687-1.3711 0.054687-4.6055-0.003906-9.2148 0.050782-13.82 0.042969h-2.5156c-1.1328 0-2.2656 0.003906-3.3945 0.003906-1.1328 0-2.2656-0.003906-3.3984-0.003906h-2.5195c-4.6055 0.007813-9.2109-0.046875-13.82-0.042969-0.55859 0-1.1133-0.023437-1.668-0.085937-0.54297-0.058594-1.082-0.15234-1.6055-0.29297-0.51953-0.13672-1.0273-0.32031-1.5117-0.55469-0.24219-0.11719-0.47656-0.24609-0.70312-0.39062-0.23047-0.14453-0.45312-0.30469-0.66406-0.47266-0.41797-0.33594-0.79688-0.71875-1.1289-1.1406-0.085937-0.10938-0.17188-0.22266-0.25391-0.33984-0.078125-0.10937-0.15234-0.21875-0.22266-0.33203-0.13281-0.20703-0.26172-0.42188-0.37891-0.63672-0.15234-0.27734-0.29297-0.55859-0.41797-0.84766-0.12891-0.29297-0.24219-0.58984-0.33984-0.89062s-0.17969-0.60547-0.23828-0.91406c-0.042968-0.23047-0.078124-0.46094-0.097656-0.69531-0.007812-0.074218-0.011718-0.15234-0.015625-0.22656-0.003906-0.070313-0.003906-0.14062-0.003906-0.21094-0.003906-0.23047-0.007813-0.46094-0.011719-0.69141-0.023437-1.8555-0.042968-3.7148-0.054687-5.5703-0.011719-2.1523-0.019531-4.3047-0.019531-6.4531-0.003907-5.0156 0.019531-10.031 0.03125-15.047 0-0.55859 0.039062-1.1211 0.11719-1.6719 0.074219-0.51562 0.1875-1.0273 0.35156-1.5234 0.078124-0.24219 0.16797-0.48047 0.26953-0.71094 0.09375-0.21875 0.19922-0.43359 0.31641-0.64063 0.11719-0.20703 0.24219-0.41016 0.37891-0.60547 0.13672-0.19141 0.28125-0.37891 0.4375-0.55469 0.30859-0.35156 0.65625-0.66797 1.0312-0.94531 0.38672-0.28516 0.80859-0.52344 1.2461-0.72266 0.22266-0.10156 0.45312-0.19141 0.68359-0.26953 0.24609-0.082031 0.49609-0.15625 0.74609-0.21484 0.42188-0.10156 0.84766-0.17187 1.2773-0.21875 0.26172-0.027343 0.52344-0.046874 0.78516-0.054687 0.074219-0.003906 0.14844-0.003906 0.22266-0.007813 0.11719-0.003906 0.23047-0.003906 0.34766-0.003906 0.89844-0.003906 1.7969-0.007812 2.6953-0.007812 6.1797-0.015625 12.359 0.003906 18.539 0.003906 4.0781 0 8.1562-0.007812 12.234-0.007812 2.0312 0 4.0586 0.003906 6.0898 0.007812 0.75 0 1.5 0.003906 2.2461 0.007812 0.097657 0 0.19141 0 0.28906 0.003907 0.09375 0.003906 0.18359 0.003906 0.27734 0.011719 0.14062 0.007812 0.27734 0.015624 0.41797 0.027343 0.36719 0.03125 0.73047 0.078125 1.0898 0.14844 0.25391 0.050781 0.50781 0.10938 0.75391 0.17969 0.24609 0.070313 0.48828 0.15234 0.72656 0.24219 0.22266 0.085937 0.44531 0.18359 0.66016 0.29297 0.21484 0.10938 0.42578 0.22656 0.62891 0.35938 0.12891 0.082031 0.25391 0.16797 0.375 0.26172 0.1875 0.14062 0.36719 0.28906 0.53516 0.44922 0.17188 0.16016 0.33203 0.32812 0.48438 0.50391 0.097656 0.11328 0.19141 0.23047 0.27734 0.34766 0.14062 0.19141 0.27344 0.38672 0.39453 0.59375 0.12109 0.20312 0.23047 0.41406 0.33203 0.62891 0.10547 0.22656 0.19922 0.46094 0.28516 0.69531 0.085938 0.23828 0.15625 0.48047 0.21875 0.72656 0.082032 0.32812 0.14844 0.65625 0.19531 0.99219 0.082031 0.55469 0.11719 1.1133 0.11719 1.6719 0.027344 9.2773 0.085938 18.555-0.050781 27.828z"/>
  <path d="m50.102 54.578c-8.3359 0-12.652 9.9414-6.9688 16.031v5.9023c0 3.043 2.4648 5.5078 5.5078 5.5078h2.9219c3.0391 0 5.5078-2.4648 5.5078-5.5078v-5.9023c5.6875-6.0898 1.3672-16.031-6.9688-16.031zm5.2461 10.336c-0.035156 0.24219-0.089844 0.48438-0.16016 0.71875-0.074219 0.24219-0.16406 0.47656-0.27344 0.70313-0.11328 0.24219-0.25 0.47266-0.39844 0.69141-0.16406 0.24219-0.35156 0.46875-0.55078 0.68359-0.38281 0.41016-0.76172 0.81641-1.1445 1.2266v7.5781c0 0.085937-0.007812 0.17188-0.023437 0.25781-0.015625 0.078124-0.039063 0.15625-0.070313 0.23047-0.0625 0.14844-0.15625 0.28516-0.26953 0.39844-0.11328 0.11328-0.25 0.20703-0.40234 0.26953-0.074219 0.03125-0.15234 0.054687-0.23047 0.070313-0.085938 0.015624-0.17188 0.023437-0.25781 0.023437h-2.9219c-0.085937 0-0.17188-0.007813-0.25781-0.023437-0.078125-0.015626-0.15625-0.039063-0.23047-0.070313-0.14844-0.0625-0.28516-0.15625-0.39844-0.26953-0.11328-0.11328-0.20703-0.25-0.26953-0.39844-0.03125-0.074218-0.054687-0.15234-0.070312-0.23047-0.015625-0.085938-0.023438-0.17188-0.023438-0.25781v-7.5781c-0.38281-0.41016-0.76172-0.81641-1.1445-1.2266-0.19922-0.21484-0.38281-0.44141-0.55078-0.68359-0.15234-0.21875-0.28516-0.45312-0.39844-0.69141-0.10938-0.22656-0.19922-0.46094-0.27344-0.70313-0.070313-0.23437-0.125-0.47656-0.16016-0.71875-0.070313-0.48437-0.070313-0.98437-0.003907-1.4688 0.070313-0.49609 0.20703-0.98047 0.40625-1.4414 0.19922-0.45703 0.46094-0.89062 0.77734-1.2773 0.30859-0.38281 0.67188-0.71875 1.0781-1 0.20312-0.14062 0.41406-0.26562 0.63281-0.37109 0.22656-0.10938 0.46094-0.20312 0.70313-0.28125 0.25391-0.078125 0.51562-0.14062 0.77734-0.17969 0.28906-0.042969 0.58203-0.0625 0.875-0.0625s0.58594 0.019531 0.875 0.0625c0.26172 0.039063 0.52344 0.10156 0.77734 0.17969 0.24219 0.074219 0.47656 0.16797 0.70312 0.28125 0.21875 0.10938 0.43359 0.23438 0.63281 0.37109 0.40625 0.28125 0.76563 0.61719 1.0781 1 0.31641 0.38672 0.57812 0.82031 0.77734 1.2812 0.19922 0.45703 0.33594 0.94531 0.40625 1.4414 0.054688 0.48438 0.054688 0.98047-0.015625 1.4648z"/>
 </g>
<text x="0.0" y="117.5" font-size="5.0" font-weight="bold" font-family="Arbeit Regular, Helvetica, Arial-Unicode, Arial, Sans-serif" fill="#000000">Created by jisangbong</text><text x="0.0" y="122.5" font-size="5.0" font-weight="bold" font-family="Arbeit Regular, Helvetica, Arial-Unicode, Arial, Sans-serif" fill="#000000">from Noun Project</text></svg>